<svg id="Capa_1" enable-background="new 0 0 512 512" height="512" viewBox="0 0 512 512" width="512" xmlns="http://www.w3.org/2000/svg"><g><circle cx="256" cy="256" fill="#6cf" r="256"/><path d="m512 256c0-140.832-115.168-256-256-256v512c140.832 0 256-115.168 256-256z" fill="#4da6ff"/><circle cx="256" cy="256" fill="#4da6ff" r="226"/><path d="m482 256c0-124.072-101.928-226-226-226v452c124.072 0 226-101.928 226-226z" fill="#37f"/><g fill="#6cf"><path d="m57.543 376v30h198.457 198.457v-30h-198.457z"/><path d="m256 241h-241v30h241 241v-30z"/><path d="m454.457 136v-30h-198.457-198.457v30h198.457z"/></g><g fill="#4da6ff"><path d="m256 241h241v30h-241z"/><path d="m256 106h198.457v30h-198.457z"/><path d="m256 376h198.457v30h-198.457z"/></g><path d="m256 15h-15v482h15 15v-482z" fill="#6cf"/><path d="m256 15h15v482h-15z" fill="#4da6ff"/><path d="m256 0c-75.703 0-135 113.002-135 256s59.297 256 135 256 135-113.002 135-256-59.297-256-135-256zm0 482c-56.909 0-105-104.037-105-226s48.091-226 105-226 105 104.037 105 226-48.091 226-105 226z" fill="#6cf"/><path d="m391 256c0-142.998-59.297-256-135-256v30c56.909 0 105 104.037 105 226s-48.091 226-105 226v30c75.703 0 135-113.002 135-256z" fill="#4da6ff"/></g></svg>